<svg id="Layer_1" data-name="Layer 1" xmlns="http://www.w3.org/2000/svg" width="155.4883" height="117.644" viewBox="0 0 155.4883 117.644"><defs><style>.cls-1{fill:#fff;}.cls-2{fill:#e1c782;}</style></defs><path class="cls-1" d="M622.4458,412.8164c0-9.9844,1.2734-17.2344,1.2734-26.4,0-5.3354-3.4379-10.5337-18.4633-10.67v-7.1133c15.0254-.1367,18.4633-5.3349,18.4633-10.67,0-8.6182-1.2734-16.9629-1.2734-26.4014,0-14.09,7.64-18.1933,23.5571-18.1933h7.8946v6.4287h-6.6211c-12.9883,0-15.79,3.5566-15.79,12.4482,0,7.7979.7637,16.2793.7637,24.7608,0,8.8916-2.8013,13.2685-11.5874,14.91v.5469c8.7861,1.6416,11.5874,6.0195,11.5874,14.9106,0,9.3028-.7637,16.4161-.7637,24.76,0,8.8926,2.8013,12.4492,15.79,12.4492h6.6211v6.43h-7.8946C630.0859,431.0117,622.4458,426.9082,622.4458,412.8164Z" transform="translate(-605.2559 -313.3677)"/><path class="cls-1" d="M719.9971,431.0117h-7.8946v-6.43h6.6211c12.9883,0,15.79-3.5566,15.79-12.4472,0-8.3457-.7637-15.459-.7637-24.76,0-8.8921,2.8008-13.27,11.5869-14.9116v-.5469c-8.7861-1.6416-11.5869-6.0186-11.5869-14.91,0-8.4814.7637-16.9628.7637-24.7607,0-8.8916-2.8018-12.4482-15.79-12.4482h-6.6211v-6.4287h7.8946c15.917,0,23.5576,4.1035,23.5576,18.1933,0,9.4385-1.2734,17.7832-1.2734,26.4014,0,5.3349,3.4375,10.5332,18.4628,10.67v7.1133c-15.0253.1367-18.4628,5.3349-18.4628,10.6694,0,9.166,1.2734,16.416,1.2734,26.4024C743.5547,426.9082,735.9141,431.0117,719.9971,431.0117Z" transform="translate(-605.2559 -313.3677)"/><path class="cls-2" d="M717.1953,396.334l-9.2246-14.312H697.7891v14.312H686.7207V344.9575h20.7031c12.7774,0,20.7715,7.1192,20.7715,18.6416,0,7.7071-3.6211,13.3584-9.8389,16.2207L729.084,396.334Zm-10.3867-41.689h-9.0195v17.9082h9.0195c6.7646,0,10.1816-3.376,10.1816-8.9541C716.99,357.9478,713.5732,354.645,706.8086,354.645Z" transform="translate(-605.2559 -313.3677)"/><path class="cls-1" d="M679.1382,396.3242l-.0684-30.8257-14.0757,25.3941h-4.9882L645.9985,366.16v30.1645H635.6128V344.9487h9.1558l17.9023,31.9268L680.3,344.9487h9.0879l.1367,51.3755Z" transform="translate(-605.2559 -313.3677)"/></svg>