<svg id="Layer_1" data-name="Layer 1" xmlns="http://www.w3.org/2000/svg" width="1366" height="768" viewBox="0 0 1366 768"><defs><style>.cls-1{fill:#e1c782;}.cls-2{fill:#fff;}</style></defs><path class="cls-1" d="M756.709,426.3262,735.9736,396.375H713.0879v29.9512H688.2051V318.8091h46.54c28.7217,0,46.6924,14.8984,46.6924,39.0137,0,16.1269-8.1406,27.9545-22.1172,33.9448l24.1143,34.5586Zm-23.3467-87.2427H713.0879V376.561h20.2744c15.2061,0,22.8857-7.0654,22.8857-18.7382C756.248,345.9956,748.5684,339.0835,733.3623,339.0835Z"/><path class="cls-2" d="M671.147,426.3086l-.1533-64.51L639.353,414.9414H628.1411L596.6538,363.18v63.1284H573.3076V318.7915h20.5816l40.2421,66.814,39.627-66.814h20.4292l.3066,107.5171Z"/><path class="cls-2" d="M547.5771,422.1123c0-13.32,1.6983-22.99,1.6983-35.2158,0-7.1162-4.5855-14.05-24.625-14.2324v-9.4883c20.0395-.1817,24.625-7.1153,24.625-14.2315,0-11.4951-1.6983-22.6259-1.6983-35.2158,0-18.7939,10.19-24.2676,31.419-24.2676h10.5293v8.5752h-8.8311c-17.3227,0-21.059,4.7442-21.059,16.6045,0,10.4,1.019,21.7129,1.019,33.0264,0,11.86-3.7363,17.6992-15.4546,19.8887v.7295c11.7183,2.1894,15.4546,8.0283,15.4546,19.8886,0,12.4073-1.019,21.8955-1.019,33.0264,0,11.86,3.7363,16.6045,21.059,16.6045h8.8311V446.38H578.9961C557.7671,446.38,547.5771,440.9063,547.5771,422.1123Z"/><path class="cls-2" d="M773.043,446.6963H762.5137v-8.5752h8.831c17.3233,0,21.06-4.7441,21.06-16.6045,0-11.1309-1.0195-20.6191-1.0195-33.0264,0-11.8608,3.7363-17.7,15.455-19.8891v-.7295c-11.7187-2.19-15.455-8.0283-15.455-19.8887,0-11.3135,1.0195-22.626,1.0195-33.0264,0-11.86-3.7363-16.6044-21.06-16.6044h-8.831v-8.5752H773.043c21.2285,0,31.4189,5.4736,31.4189,24.2675,0,12.59-1.6982,23.7207-1.6982,35.2159,0,7.1162,4.5859,14.05,24.625,14.2314V372.98c-20.0391.1826-24.625,7.1162-24.625,14.2329,0,12.2256,1.6982,21.8955,1.6982,35.2158C804.4619,441.2227,794.2715,446.6963,773.043,446.6963Z"/></svg>