<?xml version="1.0" encoding="utf-8"?>
<!-- Generator: Adobe Illustrator 24.1.2, SVG Export Plug-In . SVG Version: 6.00 Build 0)  -->
<svg version="1.1" id="Layer_1" xmlns="http://www.w3.org/2000/svg" xmlns:xlink="http://www.w3.org/1999/xlink" x="0px" y="0px"
	 viewBox="0 0 500 500" style="enable-background:new 0 0 500 500;" xml:space="preserve">
<style type="text/css">
	.st0{fill:none;stroke:#FFFFFF;stroke-width:18.446;stroke-linecap:round;}
	.st1{fill-rule:evenodd;clip-rule:evenodd;fill:#FFFFFF;}
</style>
<g transform="translate(0 -552.36)">
	<path class="st0" d="M250,571.8l199.7,115.3v230.6L250,1032.9L50.3,917.7l0-230.6L250,571.8z"/>
	<g shape-rendering="auto" transform="translate(0 .020371)">
		<path image-rendering="auto" color-rendering="auto" class="st1" d="M185.6,740.2c-2.6,0.1-5,1.2-6.8,3L127,795
			c-3.9,3.9-3.9,10.2,0,14.1l51.8,51.8c3.8,3.9,10.1,4,14.1,0.2c3.9-3.8,4-10.1,0.2-14.1c-0.1-0.1-0.1-0.1-0.2-0.2L148.1,802
			l44.8-44.8c3.9-3.8,4-10.1,0.2-14.1C191.1,741.2,188.4,740.1,185.6,740.2L185.6,740.2z"/>
		<path image-rendering="auto" color-rendering="auto" class="st1" d="M314.1,740.2c-5.5,0-9.9,4.5-9.9,9.9c0,2.7,1.1,5.3,3,7.1
			l44.8,44.8l-44.8,44.8c-3.9,3.8-4,10.1-0.2,14.1c3.8,3.9,10.1,4,14.1,0.2c0.1-0.1,0.1-0.1,0.2-0.2l51.8-51.8
			c3.9-3.9,3.9-10.2,0-14.1l-51.8-51.8C319.3,741.3,316.8,740.2,314.1,740.2L314.1,740.2z"/>
		<path image-rendering="auto" color-rendering="auto" class="st1" d="M262,724.5c-4.7,0.1-8.8,3.4-9.6,8.1l-27.9,135.6
			c-1.1,5.4,2.3,10.6,7.6,11.8c5.4,1.1,10.6-2.3,11.8-7.6c0,0,0-0.1,0-0.1l27.9-135.6c1.2-5.4-2.2-10.7-7.6-11.8
			C263.5,724.6,262.8,724.5,262,724.5L262,724.5z"/>
	</g>
</g>
</svg>
