<svg id="Layer_1" data-name="Layer 1" xmlns="http://www.w3.org/2000/svg" width="1339" height="695.446" viewBox="0 0 1339 695.446"><defs><style>.cls-1{fill:#e1c782;}.cls-2{fill:#fff;}</style></defs><path class="cls-1" d="M1026.3864,622.3193,934.6747,489.8464H833.452V622.3193H723.3962V146.7752H929.2411c127.0349,0,206.5186,65.8953,206.5186,172.556,0,71.3289-36.0057,123.6421-97.8235,150.1367l106.6565,152.8514ZM923.1249,236.4482H833.452V402.21h89.6729c67.2558,0,101.2228-31.25,101.2228-82.8787C1024.3477,267.02,990.3807,236.4482,923.1249,236.4482Z" transform="translate(0 -16.9695)"/><path class="cls-2" d="M647.9489,622.2415l-.6782-285.3264-139.9453,235.05h-49.59L318.4684,343.0269V622.2415H215.2091V146.6975h91.0314L484.23,442.2131,659.4987,146.6975h90.3575l1.3563,475.544Z" transform="translate(0 -16.9695)"/><path class="cls-2" d="M101.4042,603.6815c0-58.9152,7.5112-101.6849,7.5112-155.7582,0-31.4748-20.2812-62.1418-108.9154-62.9495V343.0075c88.6342-.8034,108.9154-31.47,108.9154-62.9452,0-50.8424-7.5112-100.0738-7.5112-155.7582,0-83.1249,45.07-107.3346,138.9648-107.3346H286.94V54.8973H247.88c-76.6179,0-93.1436,20.9831-93.1436,73.441,0,46,4.5072,96.0353,4.5072,146.0744,0,52.4579-16.5256,78.283-68.355,87.9668v3.2265c51.8294,9.6839,68.355,35.509,68.355,87.9669,0,54.8767-4.5072,96.843-4.5072,146.0744,0,52.4579,16.5257,73.441,93.1436,73.441H286.94v37.9278H240.369C146.4739,711.0161,101.4042,686.8064,101.4042,603.6815Z" transform="translate(0 -16.9695)"/><path class="cls-2" d="M1098.631,712.4155H1052.06V674.4878H1091.12c76.62,0,93.1457-20.9832,93.1457-73.4411,0-49.2313-4.5093-91.1977-4.5093-146.0744,0-52.46,16.5256-78.2851,68.3572-87.969v-3.2265c-51.8316-9.6838-68.3572-35.5089-68.3572-87.9668,0-50.0391,4.5093-100.0739,4.5093-146.0744,0-52.4579-16.5256-73.441-93.1457-73.441H1052.06V18.3668h46.5707c93.8929,0,138.9648,24.21,138.9648,107.3346,0,55.6844-7.5112,104.9158-7.5112,155.7582,0,31.4748,20.2834,62.1418,108.9154,62.9452v41.9663c-88.632.8077-108.9154,31.4747-108.9154,62.9516,0,54.0733,7.5112,96.843,7.5112,155.7582C1237.5958,688.2059,1192.5239,712.4155,1098.631,712.4155Z" transform="translate(0 -16.9695)"/></svg>