<svg xmlns="http://www.w3.org/2000/svg" width="179.9382" height="186.5756" viewBox="0 0 179.9382 186.5756"><defs><style>.cls-1{fill:#fff;}</style></defs><g id="Layer_2" data-name="Layer 2"><path class="cls-1" d="M223.0613,76.9182a9.8873,9.8873,0,0,0,14.0427-.0337,10.0039,10.0039,0,0,0-.0542-14.0713,9.8841,9.8841,0,0,0-16.6415,4.8062H160.4L149.4316,56.7122,138.5643,67.6194H79.5875a9.9009,9.9009,0,1,0-9.6324,12.208,9.884,9.884,0,0,0,9.6361-7.708h44.753a79.4067,79.4067,0,0,0-52.2087,64.6977l-7.3689.0059.0527,18.6182,18.6526-.0132-.0469-18.62-6.7551.0052a74.9332,74.9332,0,0,1,62.9279-63.91l9.9569,9.9052,10.257-10.2912a74.9941,74.9941,0,0,1,65.8643,64.3008l-6.3647.0051.049,18.6182,18.6556-.0132-.0484-18.62-7.756.0063A79.4714,79.4714,0,0,0,177.978,72.1194h42.4352A9.9039,9.9039,0,0,0,223.0613,76.9182Zm3.1487-10.9a5.3958,5.3958,0,0,1,7.66-.02,5.4327,5.4327,0,1,1-7.66.02ZM73.782,73.7249a5.4419,5.4419,0,0,1-7.6839-7.7081,5.395,5.395,0,0,1,7.6582-.019A5.49,5.49,0,0,1,73.782,73.7249Zm5.1548,67.5864.0234,9.62-9.6541.0073L69.28,141.32Zm74.9646-69.2381-.0459.0462-4.314,4.3286-4.218-4.1964-.133-.1322-2.3895-2.3775,1.9534-1.9606.1615-.1619,4.53-4.5469,4.5263,4.5022.0449.0447,2.1707,2.1592Zm79.5778,69.2381.0249,9.62-9.6555.0073-.0256-9.6181Z" transform="translate(-60.0309 -56.7122)"/><path class="cls-1" d="M144.5442,90.1443l-38.15,79.7622,1.65,1.0767c.11.0717,11.0581,7.28,16.207,15.8481a69.887,69.887,0,0,1,7.6619,20.0918l-4.9527-.0029.003,9.8393-6.0784-.0029-.0088,26.5005,57.2351.0307V216.7844l-6.0835-.0029V206.948l-4.9552-.0029a69.7656,69.7656,0,0,1,7.6718-20.09c5.1269-8.5385,16.0913-15.7675,16.2011-15.8393l1.6487-1.0781-38.135-79.79Zm29.0676,131.1372v17.5034l-48.2336-.0249.0058-17.5Zm-6.0835-9.8364v5.18l-36.0644-.0162-.0015-5.1855,1.2548.0007.0181.1194,6.9075.0029c3.2395.0044,6.93.0059,10.1609.003.3823.0044.7669.0029,1.0781-.0059l.8994.0015c4.6055.0088,8.9466.0161,12.5376.0161h1.9344l.0175-.1165Zm3.3589-26.9077a74.4225,74.4225,0,0,0-8.42,22.4047l-25.9446-.0161a74.3368,74.3368,0,0,0-8.4129-22.4121c-4.4729-7.4414-12.5266-13.6992-15.9778-16.1733l35.113-73.4129v51.7288a10.5879,10.5879,0,1,0,4.5,0V94.9028l35.1138,73.4685C183.4065,170.8455,175.352,177.1033,170.8872,184.5374ZM149.4946,150.91a6.0879,6.0879,0,1,1-6.0871,6.0879A6.0946,6.0946,0,0,1,149.4946,150.91Z" transform="translate(-60.0309 -56.7122)"/></g></svg>